<svg width="18" height="18" viewBox="0 0 18 18" fill="none" xmlns="http://www.w3.org/2000/svg">
<path fill-rule="evenodd" clip-rule="evenodd" d="M9 18C4.03729 18 0 13.9627 0 9C0 4.03729 4.03729 0 9 0C13.9627 0 18 4.03729 18 9C18 13.9627 13.9627 18 9 18ZM13.6101 7.25718L9 11.8662L4.38988 7.25612L5.13847 6.50753L9 10.3691L12.8605 6.50753L13.6101 7.25718ZM16.9412 9C16.9412 13.3793 13.3793 16.9412 9 16.9412C4.62071 16.9412 1.05882 13.3793 1.05882 9C1.05882 4.62071 4.62071 1.05882 9 1.05882C13.3793 1.05882 16.9412 4.62071 16.9412 9Z" fill="#C5D5E6"/>
</svg>
