<svg width="39" height="37" viewBox="0 0 39 37" fill="none" xmlns="http://www.w3.org/2000/svg">
<path d="M28.8139 6.78312C30.332 7.32151 31.5577 8.55053 32.0961 10.0686C32.2525 10.512 32.669 10.7883 33.1125 10.7883C33.2322 10.7883 33.3541 10.7678 33.4728 10.7257C34.0338 10.5272 34.3285 9.91004 34.1299 9.34889C33.3671 7.1909 31.6915 5.51428 29.5357 4.74917C28.9735 4.55167 28.3575 4.84413 28.1578 5.40516C27.9594 5.96744 28.2518 6.5836 28.8139 6.78312Z" fill="#C5D5E6"/>
<path d="M18.9399 36.5542C19.1018 36.6416 19.2787 36.6858 19.4567 36.6858C19.6347 36.6858 19.8127 36.6416 19.9735 36.5542C32.2533 29.8559 38.8782 18.8363 38.8782 11.8694C38.8782 5.32435 33.5546 0.00062561 27.0095 0.00062561C22.413 0.00062561 18.1877 2.69271 16.2467 6.86075C15.9942 7.40129 16.2284 8.04336 16.7679 8.29473C17.3084 8.54724 17.9505 8.31205 18.2019 7.77252C19.7912 4.36187 23.2482 2.15862 27.0096 2.15862C32.3645 2.15862 36.7203 6.51442 36.7203 11.8694C36.7203 18.204 30.2756 28.2698 19.4568 34.3724C8.63791 28.2698 2.19315 18.2041 2.19315 11.8694C2.19315 6.51442 6.55009 2.15862 11.9039 2.15862C13.2558 2.15862 14.5636 2.43047 15.7925 2.96785C16.3385 3.20632 16.974 2.95811 17.2135 2.41213C17.4519 1.86615 17.2027 1.23066 16.6567 0.991174C15.1549 0.334054 13.5558 0.00062561 11.9039 0.00062561C5.35989 0.00062561 0.0351562 5.32422 0.0351562 11.8694C0.0351562 18.8363 6.66123 29.8559 18.9399 36.5542Z" fill="#C5D5E6"/>
</svg>
