<svg width="40" height="33" viewBox="0 0 40 33" fill="none" xmlns="http://www.w3.org/2000/svg">
<path style="fill:#FFFFFF;" fill-rule="evenodd" clip-rule="evenodd" d="M3.68 0C1.67059 0 0.0329412 1.62353 0.0329412 3.61882H0V29.3576C0 31.3529 1.63529 32.9765 3.64706 32.9765H35.3929V29.0824H40V0H3.68ZM3.64706 30.6212C2.93412 30.6212 2.35294 30.0541 2.35294 29.3553V6.80706C2.38118 6.81529 2.41294 6.81823 2.44471 6.82118L2.44471 6.82118H2.44472C2.47648 6.82412 2.50824 6.82706 2.53647 6.83529C2.87294 6.93412 3.22588 6.99529 3.60235 7.00235C3.61059 7.00235 3.61765 7.00412 3.62471 7.00588C3.63176 7.00765 3.63882 7.00941 3.64706 7.00941H33.0424V14.1506H26.3153C24.2871 14.1506 22.6376 15.7341 22.6376 17.68V20.0329C22.6376 21.9788 24.2871 23.5624 26.3153 23.5624H33.0424V30.6212H3.64706ZM24.9882 20.0329C24.9882 20.6824 25.5812 21.2094 26.3129 21.2094H37.6471V16.5035H26.3129C25.5835 16.5035 24.9882 17.0306 24.9882 17.68V20.0329ZM37.6471 26.7271H35.3929V23.5624H37.6471V26.7271ZM35.3929 4.65647V14.1506H37.6471V2.35294H3.68C2.96941 2.35294 2.38824 2.92 2.38588 3.61882C2.38588 4.33412 3.03765 4.65647 3.68 4.65647H35.3929Z" fill="#C5D5E6"/>
</svg>
