<svg width="33" height="40" viewBox="0 0 33 40" fill="none" xmlns="http://www.w3.org/2000/svg">
<path d="M32.3359 12.7529L29.5406 31.7271C29.2629 33.1671 28.6253 33.7976 28.1617 34.2588C27.7123 34.7059 27.4135 35.0024 27.4135 36.4541V38.8235C27.4135 39.4729 26.8864 40 26.237 40C25.5876 40 25.0606 39.4729 25.0606 38.8235V36.4541C25.0606 34.2071 25.7147 33.3741 26.5053 32.5906C26.87 32.2282 27.0888 32.0094 27.2206 31.3341L30.0088 12.4188C30.0512 12.1294 30.1288 11.1482 29.3664 11.0424C29.1029 11.0047 28.8888 11.0471 28.7194 11.1765C28.4935 11.3435 28.3335 11.6682 28.277 12.0659L27.1076 19.8682C27.0488 20.2706 26.7829 20.6118 26.4112 20.7741C26.0394 20.9365 25.6088 20.8918 25.2723 20.6588C25.1547 20.6776 24.957 20.6047 24.7594 20.4753C24.4017 20.2471 24.197 19.8447 24.2206 19.4212L24.8912 6.98353C24.9453 6.32941 24.4912 5.78588 23.8747 5.73176C23.5759 5.70353 23.2888 5.79765 23.0606 5.98824C22.83 6.18118 22.6935 6.44941 22.6676 6.74353L21.5782 17.9953C21.517 18.6282 21.0159 19.0871 20.3288 19.0565C20.1382 19.0447 19.9453 19.0329 19.75 19.0306C19.117 19.0165 18.6088 18.5059 18.597 17.8753L18.3264 3.47765C18.3264 2.84706 17.8323 2.35294 17.2253 2.35294C16.6182 2.35294 16.1241 2.84706 16.1241 3.45412L15.8464 18.9506C15.837 19.3976 15.5782 19.8024 15.1735 19.9929C15.0276 20.0635 14.8864 20.1341 14.7523 20.2094C14.4064 20.4071 13.9853 20.4141 13.6323 20.2282C13.2794 20.0447 13.0417 19.6941 13.0017 19.2988L11.79 6.76C11.7641 6.45177 11.6253 6.18353 11.3994 5.99294C11.1712 5.80235 10.8629 5.71529 10.5876 5.73647C10.2912 5.76235 10.0253 5.90118 9.83468 6.12941C9.64645 6.35529 9.55468 6.64235 9.58057 6.93647L10.7641 23.6353C10.8017 24.1482 10.4982 24.6282 10.0182 24.8141C9.53351 25.0024 8.98763 24.8541 8.66998 24.4494L5.02057 19.8541C4.54292 19.0541 3.69821 18.8306 3.0441 19.2094C2.7241 19.3953 2.49586 19.6918 2.40174 20.0471C2.30763 20.4 2.35468 20.7718 2.54292 21.0894L10.8464 35.4118C11.0347 35.7388 11.3429 35.9671 11.71 36.0565C12.237 36.1835 12.6088 36.6565 12.6088 37.2V38.8235C12.6088 39.4729 12.0817 40 11.4323 40C10.7829 40 10.2559 39.4729 10.2559 38.8235V38C9.65821 37.6776 9.16174 37.1976 8.81115 36.5929L0.505272 22.2706C0.00409597 21.4094 -0.130022 20.4047 0.128802 19.4424C0.38292 18.4776 1.00174 17.6729 1.86763 17.1718C3.65115 16.1435 5.93351 16.7553 6.95939 18.5341L8.14998 20.0259L7.23468 7.12471C7.15468 6.22588 7.43704 5.32706 8.02998 4.61647C8.62292 3.91059 9.46057 3.47529 10.3806 3.39294C11.3147 3.30824 12.2041 3.59765 12.9147 4.19294C13.2582 4.48235 13.5335 4.82588 13.7382 5.20706L13.7712 3.43529C13.7712 1.54824 15.3217 0 17.2253 0C19.1288 0 20.6794 1.55059 20.6794 3.45647L20.7123 5.21176C20.9194 4.82824 21.197 4.48235 21.5429 4.19059C22.2559 3.59294 23.1617 3.30588 24.0794 3.39059C25.9876 3.55765 27.4017 5.24471 27.2347 7.15059L27.11 9.45177C27.1712 9.39765 27.237 9.34588 27.3006 9.29647C27.9782 8.78824 28.7994 8.59059 29.6959 8.71294C31.5429 8.96941 32.6323 10.6329 32.3359 12.7529Z" fill="#C5D5E6"/>
</svg>
