<svg width="41" height="56" viewBox="0 0 41 56" fill="none" xmlns="http://www.w3.org/2000/svg">
<path style="fill:#FFFFFF;" fill-rule="evenodd" clip-rule="evenodd" d="M10.5493 28.6532H16.4874C17.0236 28.6532 17.4584 29.0879 17.4584 29.6241C17.4584 30.1603 17.0238 30.595 16.4876 30.595H9.57857C9.04239 30.595 8.6077 30.1603 8.6077 29.6241V14.1921L6.51838 15.2368C6.37961 15.306 6.23126 15.3393 6.08472 15.3393C5.77767 15.3393 5.47825 15.1934 5.29094 14.9282L0.630871 8.3266C0.338962 7.91314 0.413784 7.34485 0.802521 7.02084L8.95268 0.229126C9.12175 0.0863431 9.33987 0 9.57844 0H31.1318C31.37 0 31.588 0.0860841 31.757 0.228479L39.908 7.02084C40.2968 7.34485 40.3715 7.91314 40.0797 8.3266L35.4196 14.9282C35.2323 15.1935 34.9329 15.3393 34.6258 15.3393C34.4792 15.3393 34.3308 15.3061 34.1922 15.2368L32.1027 14.1921V16.8092C32.1027 17.3454 31.668 17.7801 31.1318 17.7801C30.5957 17.7801 30.161 17.3454 30.161 16.8092V1.94175H26.4925C26.0247 4.90809 23.4509 7.18395 20.3553 7.18395C17.2596 7.18395 14.6859 4.90809 14.2182 1.94175H10.5493V28.6532ZM32.1027 12.0211L34.3142 13.1269L37.9764 7.9389L32.1027 3.04427V12.0211ZM20.3553 5.2422C18.3339 5.2422 16.6372 3.83055 16.1962 1.94175H24.5144C24.0733 3.83068 22.3766 5.2422 20.3553 5.2422ZM2.73391 7.9389L6.39605 13.1269L8.60757 12.0211V3.04427L2.73391 7.9389Z" fill="#C5D5E6"/>
<path style="fill:#FFFFFF;" fill-rule="evenodd" clip-rule="evenodd" d="M39.1281 18.9078H19.6076C19.0714 18.9078 18.6367 19.3425 18.6367 19.8787V54.0889C18.6367 54.6251 19.0714 55.0598 19.6076 55.0598H27.0835C27.5987 55.0598 28.0243 54.6574 28.0528 54.1428L29.3677 30.4862L30.6827 54.1428C30.7113 54.6572 31.1368 55.0598 31.652 55.0598H39.1279C39.664 55.0598 40.0987 54.6251 40.0987 54.0889V19.8787C40.099 19.3424 39.6643 18.9078 39.1281 18.9078ZM38.1572 23.0224H35.0957V20.8496H38.1572V23.0224ZM25.5817 20.8496V23.0224H33.154V20.8496H25.5817ZM23.64 20.8496V23.0224H20.5785V20.8496H23.64ZM31.251 29.3774L32.5707 53.1179H38.1574V24.9641H20.5786V53.1179H26.1653L27.4849 29.3774C27.5134 28.8628 27.939 28.4603 28.4542 28.4603H30.2816C30.7968 28.4603 31.2224 28.8629 31.251 29.3774Z" fill="#C5D5E6"/>
</svg>
