<svg width="81" height="17" viewBox="0 0 81 17" fill="none" xmlns="http://www.w3.org/2000/svg">
<path d="M9.62 0.399999V13H6.74V3.172H2.96V13H0.08V0.399999H9.62ZM17.079 3.748C18.267 3.748 19.281 4.21 20.121 5.134C20.961 6.046 21.381 7.168 21.381 8.5C21.381 9.832 20.961 10.96 20.121 11.884C19.281 12.796 18.267 13.252 17.079 13.252C15.927 13.252 15.033 12.886 14.397 12.154V16.6H11.697V4H14.397V4.846C15.033 4.114 15.927 3.748 17.079 3.748ZM14.991 10.102C15.399 10.498 15.915 10.696 16.539 10.696C17.163 10.696 17.673 10.498 18.069 10.102C18.477 9.706 18.681 9.172 18.681 8.5C18.681 7.828 18.477 7.294 18.069 6.898C17.673 6.502 17.163 6.304 16.539 6.304C15.915 6.304 15.399 6.502 14.991 6.898C14.595 7.294 14.397 7.828 14.397 8.5C14.397 9.172 14.595 9.706 14.991 10.102ZM29.3919 4H31.3719V13H28.7439V8.5L24.8919 13H22.9119V4H25.5399V8.5L29.3919 4ZM40.0673 8.392C40.8713 8.824 41.2733 9.502 41.2733 10.426C41.2733 11.194 41.0033 11.818 40.4633 12.298C39.9353 12.766 39.1853 13 38.2133 13H33.3533V4H37.8533C38.8253 4 39.5753 4.24 40.1033 4.72C40.6433 5.188 40.9133 5.806 40.9133 6.574C40.9133 7.366 40.6313 7.972 40.0673 8.392ZM37.5653 6.16H35.8733V7.42H37.5653C38.0933 7.42 38.3573 7.216 38.3573 6.808C38.3573 6.376 38.0933 6.16 37.5653 6.16ZM37.8533 10.768C38.3813 10.768 38.6453 10.546 38.6453 10.102C38.6453 9.682 38.3813 9.472 37.8533 9.472H35.8733V10.768H37.8533ZM49.151 4H51.851V13H49.151V12.154C48.515 12.886 47.621 13.252 46.469 13.252C45.281 13.252 44.267 12.796 43.427 11.884C42.587 10.96 42.167 9.832 42.167 8.5C42.167 7.168 42.587 6.046 43.427 5.134C44.267 4.21 45.281 3.748 46.469 3.748C47.621 3.748 48.515 4.114 49.151 4.846V4ZM45.461 10.102C45.857 10.498 46.373 10.696 47.009 10.696C47.645 10.696 48.161 10.498 48.557 10.102C48.953 9.706 49.151 9.172 49.151 8.5C49.151 7.828 48.953 7.294 48.557 6.898C48.161 6.502 47.645 6.304 47.009 6.304C46.373 6.304 45.857 6.502 45.461 6.898C45.065 7.294 44.867 7.828 44.867 8.5C44.867 9.172 45.065 9.706 45.461 10.102ZM61.1218 4V6.592H58.4398V13H55.7398V6.592H53.0218V4H61.1218ZM61.6929 13V10.912L65.9229 6.52C66.7749 5.644 67.2009 4.9 67.2009 4.288C67.2009 3.892 67.0809 3.574 66.8409 3.334C66.6009 3.082 66.2709 2.956 65.8509 2.956C65.0109 2.956 64.3929 3.412 63.9969 4.324L61.5669 2.902C61.9509 2.002 62.5269 1.318 63.2949 0.85C64.0629 0.381999 64.9029 0.147999 65.8149 0.147999C66.9909 0.147999 67.9929 0.513999 68.8209 1.246C69.6609 1.966 70.0809 2.938 70.0809 4.162C70.0809 5.494 69.4269 6.814 68.1189 8.122L66.0309 10.228H70.2609V13H61.6929ZM80.9788 8.32V10.984H79.7188V13H76.8028V10.984H71.0788V8.32L75.0928 0.399999H78.1888L74.1748 8.32H76.8028V5.62H79.7188V8.32H80.9788Z" fill="white"/>
</svg>
